{
	"asset":{
		"generator":"Khronos glTF Blender I/O v4.1.63",
		"version":"2.0"
	},
	"scene":0,
	"scenes":[
		{
			"name":"Scene",
			"nodes":[
				0,
				1,
				2,
				3,
				4,
				5,
				6
			]
		}
	],
	"nodes":[
		{
			"mesh":0,
			"name":"bunBottom",
			"scale":[
				0.40724050998687744,
				0.40724050998687744,
				0.40724050998687744
			]
		},
		{
			"mesh":1,
			"name":"BunTop",
			"scale":[
				0.40724050998687744,
				0.40724050998687744,
				0.40724050998687744
			]
		},
		{
			"mesh":2,
			"name":"burgerMeat",
			"scale":[
				0.40724050998687744,
				0.40724050998687744,
				0.40724050998687744
			]
		},
		{
			"mesh":3,
			"name":"cheese",
			"scale":[
				0.40724050998687744,
				0.40724050998687744,
				0.40724050998687744
			]
		},
		{
			"mesh":4,
			"name":"Lettuce1",
			"scale":[
				0.40724050998687744,
				0.40724050998687744,
				0.40724050998687744
			]
		},
		{
			"mesh":5,
			"name":"Lettuce2",
			"scale":[
				0.40724050998687744,
				0.40724050998687744,
				0.40724050998687744
			]
		},
		{
			"mesh":6,
			"name":"tomato",
			"scale":[
				0.40724050998687744,
				0.40724050998687744,
				0.40724050998687744
			]
		}
	],
	"materials":[
		{
			"doubleSided":true,
			"name":"bunbottom",
			"normalTexture":{
				"index":0
			},
			"pbrMetallicRoughness":{
				"baseColorTexture":{
					"index":1
				},
				"metallicFactor":0,
				"roughnessFactor":0.34090909361839294
			}
		},
		{
			"doubleSided":true,
			"name":"seeds",
			"pbrMetallicRoughness":{
				"baseColorFactor":[
					0.800000011920929,
					0.800000011920929,
					0.800000011920929,
					1
				],
				"metallicFactor":0,
				"roughnessFactor":0.5
			}
		},
		{
			"doubleSided":true,
			"name":"meat",
			"normalTexture":{
				"index":2
			},
			"pbrMetallicRoughness":{
				"baseColorFactor":[
					0.25015830993652344,
					0.11443537473678589,
					0.09530749171972275,
					1
				],
				"metallicFactor":0,
				"roughnessFactor":0.5499999523162842
			}
		},
		{
			"doubleSided":true,
			"name":"cheese",
			"pbrMetallicRoughness":{
				"baseColorFactor":[
					1,
					1,
					0.3274083733558655,
					1
				],
				"metallicFactor":0,
				"roughnessFactor":0.4000000059604645
			}
		},
		{
			"doubleSided":true,
			"name":"lettuce",
			"normalTexture":{
				"index":3
			},
			"pbrMetallicRoughness":{
				"baseColorTexture":{
					"index":4
				},
				"metallicFactor":0,
				"roughnessFactor":0.17272727191448212
			}
		},
		{
			"doubleSided":true,
			"name":"tomato",
			"pbrMetallicRoughness":{
				"baseColorFactor":[
					0.8962695598602295,
					0.1094617024064064,
					0.09989873319864273,
					1
				],
				"metallicFactor":0,
				"roughnessFactor":0.44545453786849976
			}
		}
	],
	"meshes":[
		{
			"name":"Sphere.005",
			"primitives":[
				{
					"attributes":{
						"POSITION":0,
						"NORMAL":1,
						"TEXCOORD_0":2
					},
					"indices":3,
					"material":0
				}
			]
		},
		{
			"name":"Sphere",
			"primitives":[
				{
					"attributes":{
						"POSITION":4,
						"NORMAL":5,
						"TEXCOORD_0":6
					},
					"indices":7,
					"material":0
				},
				{
					"attributes":{
						"POSITION":8,
						"NORMAL":9,
						"TEXCOORD_0":10
					},
					"indices":11,
					"material":1
				}
			]
		},
		{
			"name":"Sphere.002",
			"primitives":[
				{
					"attributes":{
						"POSITION":12,
						"NORMAL":13,
						"TEXCOORD_0":14
					},
					"indices":15,
					"material":2
				}
			]
		},
		{
			"name":"Plane.002",
			"primitives":[
				{
					"attributes":{
						"POSITION":16,
						"NORMAL":17,
						"TEXCOORD_0":18
					},
					"indices":19,
					"material":3
				}
			]
		},
		{
			"name":"Circle.001",
			"primitives":[
				{
					"attributes":{
						"POSITION":20,
						"NORMAL":21,
						"TEXCOORD_0":22
					},
					"indices":23,
					"material":4
				}
			]
		},
		{
			"name":"Circle.029",
			"primitives":[
				{
					"attributes":{
						"POSITION":24,
						"NORMAL":25,
						"TEXCOORD_0":26
					},
					"indices":23,
					"material":4
				}
			]
		},
		{
			"name":"Sphere.001",
			"primitives":[
				{
					"attributes":{
						"POSITION":27,
						"NORMAL":28,
						"TEXCOORD_0":29
					},
					"indices":30,
					"material":5
				}
			]
		}
	],
	"textures":[
		{
			"sampler":0,
			"source":0
		},
		{
			"sampler":0,
			"source":1
		},
		{
			"sampler":0,
			"source":2
		},
		{
			"sampler":0,
			"source":3
		},
		{
			"sampler":0,
			"source":4
		}
	],
	"images":[
		{
			"mimeType":"image/jpeg",
			"name":"360_F_414037673_Hi0hcSrdkpiNDBEtQygTNNaxlW5aLdQT000",
			"uri":"360_F_414037673_Hi0hcSrdkpiNDBEtQygTNNaxlW5aLdQT000.jpg"
		},
		{
			"mimeType":"image/jpeg",
			"name":"360_F_414037673_Hi0hcSrdkpiNDBEtQygTNNaxlW5aLdQT",
			"uri":"360_F_414037673_Hi0hcSrdkpiNDBEtQygTNNaxlW5aLdQT.jpg"
		},
		{
			"mimeType":"image/jpeg",
			"name":"13060-normal",
			"uri":"13060-normal.jpg"
		},
		{
			"mimeType":"image/jpeg",
			"name":"TexturesCom_Vegetables0001_1_seamless_S000",
			"uri":"TexturesCom_Vegetables0001_1_seamless_S000.jpg"
		},
		{
			"mimeType":"image/jpeg",
			"name":"TexturesCom_Vegetables0001_1_seamless_S",
			"uri":"TexturesCom_Vegetables0001_1_seamless_S.jpg"
		}
	],
	"accessors":[
		{
			"bufferView":0,
			"componentType":5126,
			"count":1218,
			"max":[
				0.4819185435771942,
				0.10946730524301529,
				0.4756260812282562
			],
			"min":[
				-0.48247432708740234,
				0.003356136381626129,
				-0.48876693844795227
			],
			"type":"VEC3"
		},
		{
			"bufferView":1,
			"componentType":5126,
			"count":1218,
			"type":"VEC3"
		},
		{
			"bufferView":2,
			"componentType":5126,
			"count":1218,
			"type":"VEC2"
		},
		{
			"bufferView":3,
			"componentType":5123,
			"count":6528,
			"type":"SCALAR"
		},
		{
			"bufferView":4,
			"componentType":5126,
			"count":1282,
			"max":[
				0.48039954900741577,
				0.6284831166267395,
				0.474107027053833
			],
			"min":[
				-0.48095521330833435,
				0.31188008189201355,
				-0.4872478246688843
			],
			"type":"VEC3"
		},
		{
			"bufferView":5,
			"componentType":5126,
			"count":1282,
			"type":"VEC3"
		},
		{
			"bufferView":6,
			"componentType":5126,
			"count":1282,
			"type":"VEC2"
		},
		{
			"bufferView":7,
			"componentType":5123,
			"count":7296,
			"type":"SCALAR"
		},
		{
			"bufferView":8,
			"componentType":5126,
			"count":1176,
			"max":[
				0.38191020488739014,
				0.6319658160209656,
				0.3682027757167816
			],
			"min":[
				-0.3568482995033264,
				0.5069001317024231,
				-0.3888285160064697
			],
			"type":"VEC3"
		},
		{
			"bufferView":9,
			"componentType":5126,
			"count":1176,
			"type":"VEC3"
		},
		{
			"bufferView":10,
			"componentType":5126,
			"count":1176,
			"type":"VEC2"
		},
		{
			"bufferView":11,
			"componentType":5123,
			"count":6720,
			"type":"SCALAR"
		},
		{
			"bufferView":12,
			"componentType":5126,
			"count":592,
			"max":[
				0.4428662061691284,
				0.2633220851421356,
				0.43657368421554565
			],
			"min":[
				-0.4434219300746918,
				0.12951324880123138,
				-0.4497146010398865
			],
			"type":"VEC3"
		},
		{
			"bufferView":13,
			"componentType":5126,
			"count":592,
			"type":"VEC3"
		},
		{
			"bufferView":14,
			"componentType":5126,
			"count":592,
			"type":"VEC2"
		},
		{
			"bufferView":15,
			"componentType":5123,
			"count":2688,
			"type":"SCALAR"
		},
		{
			"bufferView":16,
			"componentType":5126,
			"count":1498,
			"max":[
				0.44810014963150024,
				0.2796095907688141,
				0.44630056619644165
			],
			"min":[
				-0.47541478276252747,
				0.18023152649402618,
				-0.4561467468738556
			],
			"type":"VEC3"
		},
		{
			"bufferView":17,
			"componentType":5126,
			"count":1498,
			"type":"VEC3"
		},
		{
			"bufferView":18,
			"componentType":5126,
			"count":1498,
			"type":"VEC2"
		},
		{
			"bufferView":19,
			"componentType":5123,
			"count":8976,
			"type":"SCALAR"
		},
		{
			"bufferView":20,
			"componentType":5126,
			"count":4866,
			"max":[
				0.5031007528305054,
				0.15266110002994537,
				0.48972374200820923
			],
			"min":[
				-0.5006051659584045,
				0.09803914278745651,
				-0.5084861516952515
			],
			"type":"VEC3"
		},
		{
			"bufferView":21,
			"componentType":5126,
			"count":4866,
			"type":"VEC3"
		},
		{
			"bufferView":22,
			"componentType":5126,
			"count":4866,
			"type":"VEC2"
		},
		{
			"bufferView":23,
			"componentType":5123,
			"count":29184,
			"type":"SCALAR"
		},
		{
			"bufferView":24,
			"componentType":5126,
			"count":4866,
			"max":[
				0.5308693647384644,
				0.13618572056293488,
				0.5242940783500671
			],
			"min":[
				-0.530379056930542,
				0.07159275561571121,
				-0.5340766906738281
			],
			"type":"VEC3"
		},
		{
			"bufferView":25,
			"componentType":5126,
			"count":4866,
			"type":"VEC3"
		},
		{
			"bufferView":26,
			"componentType":5126,
			"count":4866,
			"type":"VEC2"
		},
		{
			"bufferView":27,
			"componentType":5126,
			"count":450,
			"max":[
				0.45907771587371826,
				0.31172966957092285,
				0.45278510451316833
			],
			"min":[
				-0.45963340997695923,
				0.2666429579257965,
				-0.46592608094215393
			],
			"type":"VEC3"
		},
		{
			"bufferView":28,
			"componentType":5126,
			"count":450,
			"type":"VEC3"
		},
		{
			"bufferView":29,
			"componentType":5126,
			"count":450,
			"type":"VEC2"
		},
		{
			"bufferView":30,
			"componentType":5123,
			"count":2688,
			"type":"SCALAR"
		}
	],
	"bufferViews":[
		{
			"buffer":0,
			"byteLength":14616,
			"byteOffset":0,
			"target":34962
		},
		{
			"buffer":0,
			"byteLength":14616,
			"byteOffset":14616,
			"target":34962
		},
		{
			"buffer":0,
			"byteLength":9744,
			"byteOffset":29232,
			"target":34962
		},
		{
			"buffer":0,
			"byteLength":13056,
			"byteOffset":38976,
			"target":34963
		},
		{
			"buffer":0,
			"byteLength":15384,
			"byteOffset":52032,
			"target":34962
		},
		{
			"buffer":0,
			"byteLength":15384,
			"byteOffset":67416,
			"target":34962
		},
		{
			"buffer":0,
			"byteLength":10256,
			"byteOffset":82800,
			"target":34962
		},
		{
			"buffer":0,
			"byteLength":14592,
			"byteOffset":93056,
			"target":34963
		},
		{
			"buffer":0,
			"byteLength":14112,
			"byteOffset":107648,
			"target":34962
		},
		{
			"buffer":0,
			"byteLength":14112,
			"byteOffset":121760,
			"target":34962
		},
		{
			"buffer":0,
			"byteLength":9408,
			"byteOffset":135872,
			"target":34962
		},
		{
			"buffer":0,
			"byteLength":13440,
			"byteOffset":145280,
			"target":34963
		},
		{
			"buffer":0,
			"byteLength":7104,
			"byteOffset":158720,
			"target":34962
		},
		{
			"buffer":0,
			"byteLength":7104,
			"byteOffset":165824,
			"target":34962
		},
		{
			"buffer":0,
			"byteLength":4736,
			"byteOffset":172928,
			"target":34962
		},
		{
			"buffer":0,
			"byteLength":5376,
			"byteOffset":177664,
			"target":34963
		},
		{
			"buffer":0,
			"byteLength":17976,
			"byteOffset":183040,
			"target":34962
		},
		{
			"buffer":0,
			"byteLength":17976,
			"byteOffset":201016,
			"target":34962
		},
		{
			"buffer":0,
			"byteLength":11984,
			"byteOffset":218992,
			"target":34962
		},
		{
			"buffer":0,
			"byteLength":17952,
			"byteOffset":230976,
			"target":34963
		},
		{
			"buffer":0,
			"byteLength":58392,
			"byteOffset":248928,
			"target":34962
		},
		{
			"buffer":0,
			"byteLength":58392,
			"byteOffset":307320,
			"target":34962
		},
		{
			"buffer":0,
			"byteLength":38928,
			"byteOffset":365712,
			"target":34962
		},
		{
			"buffer":0,
			"byteLength":58368,
			"byteOffset":404640,
			"target":34963
		},
		{
			"buffer":0,
			"byteLength":58392,
			"byteOffset":463008,
			"target":34962
		},
		{
			"buffer":0,
			"byteLength":58392,
			"byteOffset":521400,
			"target":34962
		},
		{
			"buffer":0,
			"byteLength":38928,
			"byteOffset":579792,
			"target":34962
		},
		{
			"buffer":0,
			"byteLength":5400,
			"byteOffset":618720,
			"target":34962
		},
		{
			"buffer":0,
			"byteLength":5400,
			"byteOffset":624120,
			"target":34962
		},
		{
			"buffer":0,
			"byteLength":3600,
			"byteOffset":629520,
			"target":34962
		},
		{
			"buffer":0,
			"byteLength":5376,
			"byteOffset":633120,
			"target":34963
		}
	],
	"samplers":[
		{
			"magFilter":9729,
			"minFilter":9987
		}
	],
	"buffers":[
		{
			"byteLength":638496,
			"uri":"burger.bin"
		}
	]
}
