{
	"asset":{
		"generator":"Khronos glTF Blender I/O v4.1.63",
		"version":"2.0"
	},
	"scene":0,
	"scenes":[
		{
			"name":"Scene",
			"nodes":[
				0,
				1,
				2,
				3,
				4,
				5,
				6
			]
		}
	],
	"nodes":[
		{
			"mesh":0,
			"name":"Circle",
			"scale":[
				7.266279220581055,
				7.266279220581055,
				7.266279220581055
			]
		},
		{
			"mesh":1,
			"name":"Circle.001",
			"scale":[
				7.266279220581055,
				7.266279220581055,
				7.266279220581055
			]
		},
		{
			"mesh":2,
			"name":"Plane",
			"scale":[
				7.266279220581055,
				7.266279220581055,
				7.266279220581055
			]
		},
		{
			"mesh":3,
			"name":"Sphere",
			"scale":[
				7.266279220581055,
				7.266279220581055,
				7.266279220581055
			]
		},
		{
			"mesh":4,
			"name":"Sphere.001",
			"scale":[
				7.266279220581055,
				7.266279220581055,
				7.266279220581055
			]
		},
		{
			"mesh":5,
			"name":"Sphere.002",
			"scale":[
				7.266279220581055,
				7.266279220581055,
				7.266279220581055
			]
		},
		{
			"mesh":6,
			"name":"Sphere.005",
			"scale":[
				7.266279220581055,
				7.266279220581055,
				7.266279220581055
			]
		}
	],
	"materials":[
		{
			"doubleSided":true,
			"name":"Material.008",
			"normalTexture":{
				"index":0
			},
			"pbrMetallicRoughness":{
				"baseColorTexture":{
					"index":1
				},
				"metallicFactor":0,
				"roughnessFactor":0.17272727191448212
			}
		},
		{
			"doubleSided":true,
			"name":"Material.007",
			"pbrMetallicRoughness":{
				"baseColorFactor":[
					1,
					1,
					0.3274083733558655,
					1
				],
				"metallicFactor":0,
				"roughnessFactor":0.4000000059604645
			}
		},
		{
			"doubleSided":true,
			"name":"Material.003",
			"normalTexture":{
				"index":2
			},
			"pbrMetallicRoughness":{
				"baseColorTexture":{
					"index":3
				},
				"metallicFactor":0,
				"roughnessFactor":0.34090909361839294
			}
		},
		{
			"doubleSided":true,
			"name":"Material.006",
			"pbrMetallicRoughness":{
				"baseColorFactor":[
					0.800000011920929,
					0.800000011920929,
					0.800000011920929,
					1
				],
				"metallicFactor":0,
				"roughnessFactor":0.5
			}
		},
		{
			"doubleSided":true,
			"name":"Material.005",
			"pbrMetallicRoughness":{
				"baseColorFactor":[
					0.8962695598602295,
					0.1094617024064064,
					0.09989873319864273,
					1
				],
				"metallicFactor":0,
				"roughnessFactor":0.44545453786849976
			}
		},
		{
			"doubleSided":true,
			"name":"Material.004",
			"normalTexture":{
				"index":4
			},
			"pbrMetallicRoughness":{
				"baseColorFactor":[
					0.25015830993652344,
					0.11443537473678589,
					0.09530749171972275,
					1
				],
				"metallicFactor":0,
				"roughnessFactor":0.5499999523162842
			}
		}
	],
	"meshes":[
		{
			"name":"Circle.029",
			"primitives":[
				{
					"attributes":{
						"POSITION":0,
						"NORMAL":1,
						"TEXCOORD_0":2
					},
					"indices":3,
					"material":0
				}
			]
		},
		{
			"name":"Circle.001",
			"primitives":[
				{
					"attributes":{
						"POSITION":4,
						"NORMAL":5,
						"TEXCOORD_0":6
					},
					"indices":3,
					"material":0
				}
			]
		},
		{
			"name":"Plane.002",
			"primitives":[
				{
					"attributes":{
						"POSITION":7,
						"NORMAL":8,
						"TEXCOORD_0":9
					},
					"indices":10,
					"material":1
				}
			]
		},
		{
			"name":"Sphere",
			"primitives":[
				{
					"attributes":{
						"POSITION":11,
						"NORMAL":12,
						"TEXCOORD_0":13
					},
					"indices":14,
					"material":2
				},
				{
					"attributes":{
						"POSITION":15,
						"NORMAL":16,
						"TEXCOORD_0":17
					},
					"indices":18,
					"material":3
				}
			]
		},
		{
			"name":"Sphere.001",
			"primitives":[
				{
					"attributes":{
						"POSITION":19,
						"NORMAL":20,
						"TEXCOORD_0":21
					},
					"indices":22,
					"material":4
				}
			]
		},
		{
			"name":"Sphere.002",
			"primitives":[
				{
					"attributes":{
						"POSITION":23,
						"NORMAL":24,
						"TEXCOORD_0":25
					},
					"indices":26,
					"material":5
				}
			]
		},
		{
			"name":"Sphere.005",
			"primitives":[
				{
					"attributes":{
						"POSITION":27,
						"NORMAL":28,
						"TEXCOORD_0":29
					},
					"indices":30,
					"material":2
				}
			]
		}
	],
	"textures":[
		{
			"sampler":0,
			"source":0
		},
		{
			"sampler":0,
			"source":1
		},
		{
			"sampler":0,
			"source":2
		},
		{
			"sampler":0,
			"source":3
		},
		{
			"sampler":0,
			"source":4
		}
	],
	"images":[
		{
			"mimeType":"image/jpeg",
			"name":"TexturesCom_Vegetables0001_1_seamless_S000",
			"uri":"TexturesCom_Vegetables0001_1_seamless_S000.jpg"
		},
		{
			"mimeType":"image/jpeg",
			"name":"TexturesCom_Vegetables0001_1_seamless_S",
			"uri":"TexturesCom_Vegetables0001_1_seamless_S.jpg"
		},
		{
			"mimeType":"image/jpeg",
			"name":"360_F_414037673_Hi0hcSrdkpiNDBEtQygTNNaxlW5aLdQT000",
			"uri":"360_F_414037673_Hi0hcSrdkpiNDBEtQygTNNaxlW5aLdQT000.jpg"
		},
		{
			"mimeType":"image/jpeg",
			"name":"360_F_414037673_Hi0hcSrdkpiNDBEtQygTNNaxlW5aLdQT",
			"uri":"360_F_414037673_Hi0hcSrdkpiNDBEtQygTNNaxlW5aLdQT.jpg"
		},
		{
			"mimeType":"image/jpeg",
			"name":"13060-normal",
			"uri":"13060-normal.jpg"
		}
	],
	"accessors":[
		{
			"bufferView":0,
			"componentType":5126,
			"count":4866,
			"max":[
				0.0730593129992485,
				0.01874215342104435,
				0.07215441018342972
			],
			"min":[
				-0.07299183309078217,
				0.009852739050984383,
				-0.07350070774555206
			],
			"type":"VEC3"
		},
		{
			"bufferView":1,
			"componentType":5126,
			"count":4866,
			"type":"VEC3"
		},
		{
			"bufferView":2,
			"componentType":5126,
			"count":4866,
			"type":"VEC2"
		},
		{
			"bufferView":3,
			"componentType":5123,
			"count":29184,
			"type":"SCALAR"
		},
		{
			"bufferView":4,
			"componentType":5126,
			"count":4866,
			"max":[
				0.06923773884773254,
				0.021009529009461403,
				0.06739676743745804
			],
			"min":[
				-0.06889428943395615,
				0.013492344878613949,
				-0.06997889280319214
			],
			"type":"VEC3"
		},
		{
			"bufferView":5,
			"componentType":5126,
			"count":4866,
			"type":"VEC3"
		},
		{
			"bufferView":6,
			"componentType":5126,
			"count":4866,
			"type":"VEC2"
		},
		{
			"bufferView":7,
			"componentType":5126,
			"count":1498,
			"max":[
				0.06166844815015793,
				0.03848043456673622,
				0.061420783400535583
			],
			"min":[
				-0.06542754173278809,
				0.024803826585412025,
				-0.06277583539485931
			],
			"type":"VEC3"
		},
		{
			"bufferView":8,
			"componentType":5126,
			"count":1498,
			"type":"VEC3"
		},
		{
			"bufferView":9,
			"componentType":5126,
			"count":1498,
			"type":"VEC2"
		},
		{
			"bufferView":10,
			"componentType":5123,
			"count":8976,
			"type":"SCALAR"
		},
		{
			"bufferView":11,
			"componentType":5126,
			"count":1282,
			"max":[
				0.06611355394124985,
				0.0864931121468544,
				0.0652475655078888
			],
			"min":[
				-0.06619002670049667,
				0.04292156547307968,
				-0.06705603003501892
			],
			"type":"VEC3"
		},
		{
			"bufferView":12,
			"componentType":5126,
			"count":1282,
			"type":"VEC3"
		},
		{
			"bufferView":13,
			"componentType":5126,
			"count":1282,
			"type":"VEC2"
		},
		{
			"bufferView":14,
			"componentType":5123,
			"count":7296,
			"type":"SCALAR"
		},
		{
			"bufferView":15,
			"componentType":5126,
			"count":1176,
			"max":[
				0.052559252828359604,
				0.08697240799665451,
				0.05067281052470207
			],
			"min":[
				-0.049110181629657745,
				0.06976062059402466,
				-0.0535113662481308
			],
			"type":"VEC3"
		},
		{
			"bufferView":16,
			"componentType":5126,
			"count":1176,
			"type":"VEC3"
		},
		{
			"bufferView":17,
			"componentType":5126,
			"count":1176,
			"type":"VEC2"
		},
		{
			"bufferView":18,
			"componentType":5123,
			"count":6720,
			"type":"SCALAR"
		},
		{
			"bufferView":19,
			"componentType":5126,
			"count":450,
			"max":[
				0.06317920237779617,
				0.04290086776018143,
				0.062313199043273926
			],
			"min":[
				-0.063255675137043,
				0.0366959422826767,
				-0.06412168592214584
			],
			"type":"VEC3"
		},
		{
			"bufferView":20,
			"componentType":5126,
			"count":450,
			"type":"VEC3"
		},
		{
			"bufferView":21,
			"componentType":5126,
			"count":450,
			"type":"VEC2"
		},
		{
			"bufferView":22,
			"componentType":5123,
			"count":2688,
			"type":"SCALAR"
		},
		{
			"bufferView":23,
			"componentType":5126,
			"count":592,
			"max":[
				0.06094814091920853,
				0.03623891621828079,
				0.06008215248584747
			],
			"min":[
				-0.06102462112903595,
				0.017823874950408936,
				-0.061890631914138794
			],
			"type":"VEC3"
		},
		{
			"bufferView":24,
			"componentType":5126,
			"count":592,
			"type":"VEC3"
		},
		{
			"bufferView":25,
			"componentType":5126,
			"count":592,
			"type":"VEC2"
		},
		{
			"bufferView":26,
			"componentType":5123,
			"count":2688,
			"type":"SCALAR"
		},
		{
			"bufferView":27,
			"componentType":5126,
			"count":1218,
			"max":[
				0.06632260233163834,
				0.015065111219882965,
				0.06545662134885788
			],
			"min":[
				-0.06639908999204636,
				0.0004618782550096512,
				-0.0672650933265686
			],
			"type":"VEC3"
		},
		{
			"bufferView":28,
			"componentType":5126,
			"count":1218,
			"type":"VEC3"
		},
		{
			"bufferView":29,
			"componentType":5126,
			"count":1218,
			"type":"VEC2"
		},
		{
			"bufferView":30,
			"componentType":5123,
			"count":6528,
			"type":"SCALAR"
		}
	],
	"bufferViews":[
		{
			"buffer":0,
			"byteLength":58392,
			"byteOffset":0,
			"target":34962
		},
		{
			"buffer":0,
			"byteLength":58392,
			"byteOffset":58392,
			"target":34962
		},
		{
			"buffer":0,
			"byteLength":38928,
			"byteOffset":116784,
			"target":34962
		},
		{
			"buffer":0,
			"byteLength":58368,
			"byteOffset":155712,
			"target":34963
		},
		{
			"buffer":0,
			"byteLength":58392,
			"byteOffset":214080,
			"target":34962
		},
		{
			"buffer":0,
			"byteLength":58392,
			"byteOffset":272472,
			"target":34962
		},
		{
			"buffer":0,
			"byteLength":38928,
			"byteOffset":330864,
			"target":34962
		},
		{
			"buffer":0,
			"byteLength":17976,
			"byteOffset":369792,
			"target":34962
		},
		{
			"buffer":0,
			"byteLength":17976,
			"byteOffset":387768,
			"target":34962
		},
		{
			"buffer":0,
			"byteLength":11984,
			"byteOffset":405744,
			"target":34962
		},
		{
			"buffer":0,
			"byteLength":17952,
			"byteOffset":417728,
			"target":34963
		},
		{
			"buffer":0,
			"byteLength":15384,
			"byteOffset":435680,
			"target":34962
		},
		{
			"buffer":0,
			"byteLength":15384,
			"byteOffset":451064,
			"target":34962
		},
		{
			"buffer":0,
			"byteLength":10256,
			"byteOffset":466448,
			"target":34962
		},
		{
			"buffer":0,
			"byteLength":14592,
			"byteOffset":476704,
			"target":34963
		},
		{
			"buffer":0,
			"byteLength":14112,
			"byteOffset":491296,
			"target":34962
		},
		{
			"buffer":0,
			"byteLength":14112,
			"byteOffset":505408,
			"target":34962
		},
		{
			"buffer":0,
			"byteLength":9408,
			"byteOffset":519520,
			"target":34962
		},
		{
			"buffer":0,
			"byteLength":13440,
			"byteOffset":528928,
			"target":34963
		},
		{
			"buffer":0,
			"byteLength":5400,
			"byteOffset":542368,
			"target":34962
		},
		{
			"buffer":0,
			"byteLength":5400,
			"byteOffset":547768,
			"target":34962
		},
		{
			"buffer":0,
			"byteLength":3600,
			"byteOffset":553168,
			"target":34962
		},
		{
			"buffer":0,
			"byteLength":5376,
			"byteOffset":556768,
			"target":34963
		},
		{
			"buffer":0,
			"byteLength":7104,
			"byteOffset":562144,
			"target":34962
		},
		{
			"buffer":0,
			"byteLength":7104,
			"byteOffset":569248,
			"target":34962
		},
		{
			"buffer":0,
			"byteLength":4736,
			"byteOffset":576352,
			"target":34962
		},
		{
			"buffer":0,
			"byteLength":5376,
			"byteOffset":581088,
			"target":34963
		},
		{
			"buffer":0,
			"byteLength":14616,
			"byteOffset":586464,
			"target":34962
		},
		{
			"buffer":0,
			"byteLength":14616,
			"byteOffset":601080,
			"target":34962
		},
		{
			"buffer":0,
			"byteLength":9744,
			"byteOffset":615696,
			"target":34962
		},
		{
			"buffer":0,
			"byteLength":13056,
			"byteOffset":625440,
			"target":34963
		}
	],
	"samplers":[
		{
			"magFilter":9729,
			"minFilter":9987
		}
	],
	"buffers":[
		{
			"byteLength":638496,
			"uri":"burger.bin"
		}
	]
}
