{
	"asset":{
		"generator":"Khronos glTF Blender I/O v4.1.63",
		"version":"2.0"
	},
	"scene":0,
	"scenes":[
		{
			"name":"Scene",
			"nodes":[
				0
			]
		}
	],
	"nodes":[
		{
			"mesh":0,
			"name":"table.002",
			"scale":[
				0.36581674218177795,
				0.36581674218177795,
				0.36581674218177795
			]
		}
	],
	"materials":[
		{
			"doubleSided":true,
			"name":"WOOD",
			"pbrMetallicRoughness":{
				"baseColorFactor":[
					0.282661497592926,
					0.10625091195106506,
					0.0271587036550045,
					1
				],
				"metallicFactor":0,
				"roughnessFactor":0.5
			}
		},
		{
			"doubleSided":true,
			"name":"cloth 1",
			"pbrMetallicRoughness":{
				"baseColorFactor":[
					0.2788977324962616,
					0.035601768642663956,
					0.048171669244766235,
					1
				],
				"metallicFactor":0
			}
		},
		{
			"doubleSided":true,
			"name":"cloth 2",
			"pbrMetallicRoughness":{
				"baseColorFactor":[
					0.800000011920929,
					0.800000011920929,
					0.800000011920929,
					1
				],
				"metallicFactor":0,
				"roughnessFactor":0.5
			}
		}
	],
	"meshes":[
		{
			"name":"Cube.026",
			"primitives":[
				{
					"attributes":{
						"POSITION":0,
						"NORMAL":1,
						"TEXCOORD_0":2
					},
					"indices":3,
					"material":0
				},
				{
					"attributes":{
						"POSITION":4,
						"NORMAL":5,
						"TEXCOORD_0":6
					},
					"indices":7,
					"material":1
				},
				{
					"attributes":{
						"POSITION":8,
						"NORMAL":9,
						"TEXCOORD_0":10
					},
					"indices":11,
					"material":2
				}
			]
		}
	],
	"accessors":[
		{
			"bufferView":0,
			"componentType":5126,
			"count":120,
			"max":[
				8.322654724121094,
				9.708189010620117,
				11.420462608337402
			],
			"min":[
				-8.322654724121094,
				0.010414477437734604,
				-11.420462608337402
			],
			"type":"VEC3"
		},
		{
			"bufferView":1,
			"componentType":5126,
			"count":120,
			"type":"VEC3"
		},
		{
			"bufferView":2,
			"componentType":5126,
			"count":120,
			"type":"VEC2"
		},
		{
			"bufferView":3,
			"componentType":5123,
			"count":204,
			"type":"SCALAR"
		},
		{
			"bufferView":4,
			"componentType":5126,
			"count":42,
			"max":[
				8.822284698486328,
				9.82002067565918,
				12.598727226257324
			],
			"min":[
				-9.259593963623047,
				6.0621161460876465,
				-12.620564460754395
			],
			"type":"VEC3"
		},
		{
			"bufferView":5,
			"componentType":5126,
			"count":42,
			"type":"VEC3"
		},
		{
			"bufferView":6,
			"componentType":5126,
			"count":42,
			"type":"VEC2"
		},
		{
			"bufferView":7,
			"componentType":5123,
			"count":153,
			"type":"SCALAR"
		},
		{
			"bufferView":8,
			"componentType":5126,
			"count":18,
			"max":[
				3.4952495098114014,
				9.931293487548828,
				11.977360725402832
			],
			"min":[
				-3.2905619144439697,
				5.732454299926758,
				-12.041378021240234
			],
			"type":"VEC3"
		},
		{
			"bufferView":9,
			"componentType":5126,
			"count":18,
			"type":"VEC3"
		},
		{
			"bufferView":10,
			"componentType":5126,
			"count":18,
			"type":"VEC2"
		},
		{
			"bufferView":11,
			"componentType":5123,
			"count":54,
			"type":"SCALAR"
		}
	],
	"bufferViews":[
		{
			"buffer":0,
			"byteLength":1440,
			"byteOffset":0,
			"target":34962
		},
		{
			"buffer":0,
			"byteLength":1440,
			"byteOffset":1440,
			"target":34962
		},
		{
			"buffer":0,
			"byteLength":960,
			"byteOffset":2880,
			"target":34962
		},
		{
			"buffer":0,
			"byteLength":408,
			"byteOffset":3840,
			"target":34963
		},
		{
			"buffer":0,
			"byteLength":504,
			"byteOffset":4248,
			"target":34962
		},
		{
			"buffer":0,
			"byteLength":504,
			"byteOffset":4752,
			"target":34962
		},
		{
			"buffer":0,
			"byteLength":336,
			"byteOffset":5256,
			"target":34962
		},
		{
			"buffer":0,
			"byteLength":306,
			"byteOffset":5592,
			"target":34963
		},
		{
			"buffer":0,
			"byteLength":216,
			"byteOffset":5900,
			"target":34962
		},
		{
			"buffer":0,
			"byteLength":216,
			"byteOffset":6116,
			"target":34962
		},
		{
			"buffer":0,
			"byteLength":144,
			"byteOffset":6332,
			"target":34962
		},
		{
			"buffer":0,
			"byteLength":108,
			"byteOffset":6476,
			"target":34963
		}
	],
	"buffers":[
		{
			"byteLength":6584,
			"uri":"squaretable.bin"
		}
	]
}
