{
	"asset":{
		"generator":"Khronos glTF Blender I/O v4.1.63",
		"version":"2.0"
	},
	"scene":0,
	"scenes":[
		{
			"name":"Scene",
			"nodes":[
				0
			]
		}
	],
	"nodes":[
		{
			"mesh":0,
			"name":"Plane.001",
			"scale":[
				4.49366569519043,
				4.49366569519043,
				4.49366569519043
			]
		}
	],
	"materials":[
		{
			"doubleSided":true,
			"name":"cloth 1",
			"pbrMetallicRoughness":{
				"baseColorFactor":[
					0.2788977324962616,
					0.035601768642663956,
					0.048171669244766235,
					1
				],
				"metallicFactor":0
			}
		},
		{
			"doubleSided":true,
			"name":"WOOD",
			"pbrMetallicRoughness":{
				"baseColorFactor":[
					0.282661497592926,
					0.10625091195106506,
					0.0271587036550045,
					1
				],
				"metallicFactor":0,
				"roughnessFactor":0.5
			}
		}
	],
	"meshes":[
		{
			"name":"Plane.030",
			"primitives":[
				{
					"attributes":{
						"POSITION":0,
						"NORMAL":1,
						"TEXCOORD_0":2
					},
					"indices":3,
					"material":0
				},
				{
					"attributes":{
						"POSITION":4,
						"NORMAL":5,
						"TEXCOORD_0":6
					},
					"indices":7,
					"material":1
				}
			]
		}
	],
	"accessors":[
		{
			"bufferView":0,
			"componentType":5126,
			"count":170,
			"max":[
				0.8779446482658386,
				0.7749407887458801,
				0.8707865476608276
			],
			"min":[
				-0.8559616208076477,
				0.16349738836288452,
				-0.8814617991447449
			],
			"type":"VEC3"
		},
		{
			"bufferView":1,
			"componentType":5126,
			"count":170,
			"type":"VEC3"
		},
		{
			"bufferView":2,
			"componentType":5126,
			"count":170,
			"type":"VEC2"
		},
		{
			"bufferView":3,
			"componentType":5123,
			"count":741,
			"type":"SCALAR"
		},
		{
			"bufferView":4,
			"componentType":5126,
			"count":224,
			"max":[
				0.8017951250076294,
				0.7701300978660583,
				0.8015559911727905
			],
			"min":[
				-0.7968899011611938,
				-0.03268378973007202,
				-0.7971290349960327
			],
			"type":"VEC3"
		},
		{
			"bufferView":5,
			"componentType":5126,
			"count":224,
			"type":"VEC3"
		},
		{
			"bufferView":6,
			"componentType":5126,
			"count":224,
			"type":"VEC2"
		},
		{
			"bufferView":7,
			"componentType":5123,
			"count":534,
			"type":"SCALAR"
		}
	],
	"bufferViews":[
		{
			"buffer":0,
			"byteLength":2040,
			"byteOffset":0,
			"target":34962
		},
		{
			"buffer":0,
			"byteLength":2040,
			"byteOffset":2040,
			"target":34962
		},
		{
			"buffer":0,
			"byteLength":1360,
			"byteOffset":4080,
			"target":34962
		},
		{
			"buffer":0,
			"byteLength":1482,
			"byteOffset":5440,
			"target":34963
		},
		{
			"buffer":0,
			"byteLength":2688,
			"byteOffset":6924,
			"target":34962
		},
		{
			"buffer":0,
			"byteLength":2688,
			"byteOffset":9612,
			"target":34962
		},
		{
			"buffer":0,
			"byteLength":1792,
			"byteOffset":12300,
			"target":34962
		},
		{
			"buffer":0,
			"byteLength":1068,
			"byteOffset":14092,
			"target":34963
		}
	],
	"buffers":[
		{
			"byteLength":15160,
			"uri":"circletable.bin"
		}
	]
}
