{
	"asset":{
		"generator":"Khronos glTF Blender I/O v4.1.63",
		"version":"2.0"
	},
	"scene":0,
	"scenes":[
		{
			"name":"Scene",
			"nodes":[
				0
			]
		}
	],
	"nodes":[
		{
			"mesh":0,
			"name":"Plate.027"
		}
	],
	"materials":[
		{
			"doubleSided":true,
			"name":"plate",
			"pbrMetallicRoughness":{
				"baseColorFactor":[
					0.8412030339241028,
					0.8412030339241028,
					0.8412030339241028,
					1
				],
				"metallicFactor":0,
				"roughnessFactor":0.17500001192092896
			}
		}
	],
	"meshes":[
		{
			"name":"Circle.028",
			"primitives":[
				{
					"attributes":{
						"POSITION":0,
						"NORMAL":1,
						"TEXCOORD_0":2
					},
					"indices":3,
					"material":0
				}
			]
		}
	],
	"accessors":[
		{
			"bufferView":0,
			"componentType":5126,
			"count":11778,
			"max":[
				1.0381401777267456,
				0.21036767959594727,
				1.0338867902755737
			],
			"min":[
				-1.035733699798584,
				0.0009596347808837891,
				-1.0399868488311768
			],
			"type":"VEC3"
		},
		{
			"bufferView":1,
			"componentType":5126,
			"count":11778,
			"type":"VEC3"
		},
		{
			"bufferView":2,
			"componentType":5126,
			"count":11778,
			"type":"VEC2"
		},
		{
			"bufferView":3,
			"componentType":5123,
			"count":70656,
			"type":"SCALAR"
		}
	],
	"bufferViews":[
		{
			"buffer":0,
			"byteLength":141336,
			"byteOffset":0,
			"target":34962
		},
		{
			"buffer":0,
			"byteLength":141336,
			"byteOffset":141336,
			"target":34962
		},
		{
			"buffer":0,
			"byteLength":94224,
			"byteOffset":282672,
			"target":34962
		},
		{
			"buffer":0,
			"byteLength":141312,
			"byteOffset":376896,
			"target":34963
		}
	],
	"buffers":[
		{
			"byteLength":518208,
			"uri":"plate.bin"
		}
	]
}
