{
	"asset":{
		"generator":"Khronos glTF Blender I/O v4.1.63",
		"version":"2.0"
	},
	"scene":0,
	"scenes":[
		{
			"name":"Scene",
			"nodes":[
				0
			]
		}
	],
	"nodes":[
		{
			"mesh":0,
			"name":"booth.007",
			"scale":[
				1.2604920864105225,
				1.2604920864105225,
				1.2604920864105225
			]
		}
	],
	"materials":[
		{
			"doubleSided":true,
			"emissiveTexture":{
				"index":0
			},
			"name":"boothcush.001",
			"normalTexture":{
				"index":1
			},
			"pbrMetallicRoughness":{
				"baseColorTexture":{
					"index":2
				},
				"metallicRoughnessTexture":{
					"index":3
				}
			}
		},
		{
			"doubleSided":true,
			"emissiveTexture":{
				"index":4
			},
			"name":"boothwood.001",
			"normalTexture":{
				"index":5
			},
			"pbrMetallicRoughness":{
				"baseColorTexture":{
					"index":6
				},
				"metallicRoughnessTexture":{
					"index":7
				}
			}
		}
	],
	"meshes":[
		{
			"name":"Cube.104",
			"primitives":[
				{
					"attributes":{
						"POSITION":0,
						"NORMAL":1,
						"TEXCOORD_0":2
					},
					"indices":3,
					"material":0
				},
				{
					"attributes":{
						"POSITION":4,
						"NORMAL":5,
						"TEXCOORD_0":6
					},
					"indices":7,
					"material":1
				}
			]
		}
	],
	"textures":[
		{
			"sampler":0,
			"source":0
		},
		{
			"sampler":0,
			"source":1
		},
		{
			"sampler":0,
			"source":2
		},
		{
			"sampler":0,
			"source":3
		},
		{
			"sampler":0,
			"source":4
		},
		{
			"sampler":0,
			"source":5
		},
		{
			"sampler":0,
			"source":6
		},
		{
			"sampler":0,
			"source":7
		}
	],
	"images":[
		{
			"mimeType":"image/png",
			"name":"boothcush_Emission",
			"uri":"boothcush_Emission.png"
		},
		{
			"mimeType":"image/png",
			"name":"boothcush_Normal",
			"uri":"boothcush_Normal.png"
		},
		{
			"mimeType":"image/png",
			"name":"boothcush_BaseColor-boothcush_Alpha",
			"uri":"boothcush_BaseColor-boothcush_Alpha.png"
		},
		{
			"mimeType":"image/png",
			"name":"boothcush_Metallic-boothcush_Roughness",
			"uri":"boothcush_Metallic-boothcush_Roughness.png"
		},
		{
			"mimeType":"image/png",
			"name":"boothwood_Emission",
			"uri":"boothwood_Emission.png"
		},
		{
			"mimeType":"image/png",
			"name":"boothwood_Normal",
			"uri":"boothwood_Normal.png"
		},
		{
			"mimeType":"image/png",
			"name":"boothwood_BaseColor.png-boothwood_Alpha.png",
			"uri":"boothwood_BaseColor_png-boothwood_Alpha_png.png"
		},
		{
			"mimeType":"image/png",
			"name":"boothwood_Metallic.png-boothwood_Roughness.png",
			"uri":"boothwood_Metallic_png-boothwood_Roughness_png.png"
		}
	],
	"accessors":[
		{
			"bufferView":0,
			"componentType":5126,
			"count":1872,
			"max":[
				1.0204157829284668,
				3.163151741027832,
				3.6214303970336914
			],
			"min":[
				-1.0124462842941284,
				0.6772870421409607,
				-3.5862019062042236
			],
			"type":"VEC3"
		},
		{
			"bufferView":1,
			"componentType":5126,
			"count":1872,
			"type":"VEC3"
		},
		{
			"bufferView":2,
			"componentType":5126,
			"count":1872,
			"type":"VEC2"
		},
		{
			"bufferView":3,
			"componentType":5123,
			"count":9600,
			"type":"SCALAR"
		},
		{
			"bufferView":4,
			"componentType":5126,
			"count":72,
			"max":[
				2,
				3.3069844245910645,
				3.700000047683716
			],
			"min":[
				-1,
				-0.6183170676231384,
				-3.6763346195220947
			],
			"type":"VEC3"
		},
		{
			"bufferView":5,
			"componentType":5126,
			"count":72,
			"type":"VEC3"
		},
		{
			"bufferView":6,
			"componentType":5126,
			"count":72,
			"type":"VEC2"
		},
		{
			"bufferView":7,
			"componentType":5123,
			"count":192,
			"type":"SCALAR"
		}
	],
	"bufferViews":[
		{
			"buffer":0,
			"byteLength":22464,
			"byteOffset":0,
			"target":34962
		},
		{
			"buffer":0,
			"byteLength":22464,
			"byteOffset":22464,
			"target":34962
		},
		{
			"buffer":0,
			"byteLength":14976,
			"byteOffset":44928,
			"target":34962
		},
		{
			"buffer":0,
			"byteLength":19200,
			"byteOffset":59904,
			"target":34963
		},
		{
			"buffer":0,
			"byteLength":864,
			"byteOffset":79104,
			"target":34962
		},
		{
			"buffer":0,
			"byteLength":864,
			"byteOffset":79968,
			"target":34962
		},
		{
			"buffer":0,
			"byteLength":576,
			"byteOffset":80832,
			"target":34962
		},
		{
			"buffer":0,
			"byteLength":384,
			"byteOffset":81408,
			"target":34963
		}
	],
	"samplers":[
		{
			"magFilter":9729,
			"minFilter":9987
		}
	],
	"buffers":[
		{
			"byteLength":81792,
			"uri":"booth.bin"
		}
	]
}
