{
	"asset":{
		"generator":"Khronos glTF Blender I/O v4.1.63",
		"version":"2.0"
	},
	"extensionsUsed":[
		"KHR_materials_specular",
		"KHR_materials_ior",
		"KHR_texture_transform"
	],
	"extensionsRequired":[
		"KHR_texture_transform"
	],
	"scene":0,
	"scenes":[
		{
			"name":"Scene",
			"nodes":[
				0
			]
		}
	],
	"nodes":[
		{
			"mesh":0,
			"name":"chair.004",
			"scale":[
				1.2604899406433105,
				1.2604899406433105,
				1.2604899406433105
			]
		}
	],
	"materials":[
		{
			"doubleSided":true,
			"extensions":{
				"KHR_materials_specular":{
					"specularColorFactor":[
						2.0,
						2.0,
						2.0
					]
				},
				"KHR_materials_ior":{
					"ior":1.4500000476837158
				}
			},
			"name":"Straw weaving",
			"pbrMetallicRoughness":{
				"baseColorTexture":{
					"extensions":{
						"KHR_texture_transform":{
							"offset":[
								0,
								0.8399999737739563
							],
							"scale":[
								0.1600000262260437,
								0.1600000262260437
							]
						}
					},
					"index":0,
					"texCoord":1
				},
				"metallicFactor":0,
				"metallicRoughnessTexture":{
					"extensions":{
						"KHR_texture_transform":{
							"offset":[
								0,
								0.8399999737739563
							],
							"scale":[
								0.1600000262260437,
								0.1600000262260437
							]
						}
					},
					"index":1,
					"texCoord":1
				}
			}
		},
		{
			"doubleSided":true,
			"name":"WOOD",
			"pbrMetallicRoughness":{
				"baseColorFactor":[
					0.282661497592926,
					0.10625091195106506,
					0.0271587036550045,
					1
				],
				"metallicFactor":0,
				"roughnessFactor":0.5
			}
		}
	],
	"meshes":[
		{
			"name":"Cube.080",
			"primitives":[
				{
					"attributes":{
						"POSITION":0,
						"NORMAL":1,
						"TEXCOORD_0":2,
						"TEXCOORD_1":3
					},
					"indices":4,
					"material":0
				},
				{
					"attributes":{
						"POSITION":5,
						"NORMAL":6,
						"TEXCOORD_0":7,
						"TEXCOORD_1":8
					},
					"indices":9,
					"material":1
				}
			]
		}
	],
	"textures":[
		{
			"sampler":0,
			"source":0
		},
		{
			"sampler":0,
			"source":1
		}
	],
	"images":[
		{
			"mimeType":"image/png",
			"name":"Corzina_basecolor-Corzina_roughness_1",
			"uri":"Corzina_basecolor-Corzina_roughness_1.png"
		},
		{
			"mimeType":"image/png",
			"name":"Corzina_roughness",
			"uri":"Corzina_roughness.png"
		}
	],
	"accessors":[
		{
			"bufferView":0,
			"componentType":5126,
			"count":4,
			"max":[
				-0.7490717172622681,
				3.1228978633880615,
				0.7467817664146423
			],
			"min":[
				-0.7490717768669128,
				1.5997447967529297,
				-0.7763713002204895
			],
			"type":"VEC3"
		},
		{
			"bufferView":1,
			"componentType":5126,
			"count":4,
			"type":"VEC3"
		},
		{
			"bufferView":2,
			"componentType":5126,
			"count":4,
			"type":"VEC2"
		},
		{
			"bufferView":3,
			"componentType":5126,
			"count":4,
			"type":"VEC2"
		},
		{
			"bufferView":4,
			"componentType":5123,
			"count":6,
			"type":"SCALAR"
		},
		{
			"bufferView":5,
			"componentType":5126,
			"count":170,
			"max":[
				1,
				3.442812204360962,
				1
			],
			"min":[
				-1,
				-0.006656274199485779,
				-1
			],
			"type":"VEC3"
		},
		{
			"bufferView":6,
			"componentType":5126,
			"count":170,
			"type":"VEC3"
		},
		{
			"bufferView":7,
			"componentType":5126,
			"count":170,
			"type":"VEC2"
		},
		{
			"bufferView":8,
			"componentType":5126,
			"count":170,
			"type":"VEC2"
		},
		{
			"bufferView":9,
			"componentType":5123,
			"count":384,
			"type":"SCALAR"
		}
	],
	"bufferViews":[
		{
			"buffer":0,
			"byteLength":48,
			"byteOffset":0,
			"target":34962
		},
		{
			"buffer":0,
			"byteLength":48,
			"byteOffset":48,
			"target":34962
		},
		{
			"buffer":0,
			"byteLength":32,
			"byteOffset":96,
			"target":34962
		},
		{
			"buffer":0,
			"byteLength":32,
			"byteOffset":128,
			"target":34962
		},
		{
			"buffer":0,
			"byteLength":12,
			"byteOffset":160,
			"target":34963
		},
		{
			"buffer":0,
			"byteLength":2040,
			"byteOffset":172,
			"target":34962
		},
		{
			"buffer":0,
			"byteLength":2040,
			"byteOffset":2212,
			"target":34962
		},
		{
			"buffer":0,
			"byteLength":1360,
			"byteOffset":4252,
			"target":34962
		},
		{
			"buffer":0,
			"byteLength":1360,
			"byteOffset":5612,
			"target":34962
		},
		{
			"buffer":0,
			"byteLength":768,
			"byteOffset":6972,
			"target":34963
		}
	],
	"samplers":[
		{
			"magFilter":9729,
			"minFilter":9987
		}
	],
	"buffers":[
		{
			"byteLength":7740,
			"uri":"Building.bin"
		}
	]
}
