{
	"asset":{
		"generator":"Khronos glTF Blender I/O v4.1.63",
		"version":"2.0"
	},
	"scene":0,
	"scenes":[
		{
			"name":"Scene",
			"nodes":[
				0
			]
		}
	],
	"nodes":[
		{
			"mesh":0,
			"name":"Chair"
		}
	],
	"materials":[
		{
			"doubleSided":true,
			"name":"WOOD",
			"pbrMetallicRoughness":{
				"baseColorFactor":[
					0.282661497592926,
					0.10625091195106506,
					0.0271587036550045,
					1
				],
				"metallicFactor":0,
				"roughnessFactor":0.5
			}
		}
	],
	"meshes":[
		{
			"name":"Cylinder",
			"primitives":[
				{
					"attributes":{
						"POSITION":0,
						"NORMAL":1,
						"TEXCOORD_0":2
					},
					"indices":3,
					"material":0
				}
			]
		}
	],
	"accessors":[
		{
			"bufferView":0,
			"componentType":5126,
			"count":935,
			"max":[
				1.3917903900146484,
				2.2925901412963867,
				0.9975261688232422
			],
			"min":[
				-0.9942604899406433,
				-1.691214680671692,
				-1.0024738311767578
			],
			"type":"VEC3"
		},
		{
			"bufferView":1,
			"componentType":5126,
			"count":935,
			"type":"VEC3"
		},
		{
			"bufferView":2,
			"componentType":5126,
			"count":935,
			"type":"VEC2"
		},
		{
			"bufferView":3,
			"componentType":5123,
			"count":3204,
			"type":"SCALAR"
		}
	],
	"bufferViews":[
		{
			"buffer":0,
			"byteLength":11220,
			"byteOffset":0,
			"target":34962
		},
		{
			"buffer":0,
			"byteLength":11220,
			"byteOffset":11220,
			"target":34962
		},
		{
			"buffer":0,
			"byteLength":7480,
			"byteOffset":22440,
			"target":34962
		},
		{
			"buffer":0,
			"byteLength":6408,
			"byteOffset":29920,
			"target":34963
		}
	],
	"buffers":[
		{
			"byteLength":36328,
			"uri":"Chair.bin"
		}
	]
}
